<svg width="32" height="32" viewBox="0 0 32 32" fill="none" xmlns="http://www.w3.org/2000/svg">
<path d="M16 28.9032C16.8552 28.9032 17.5484 29.5965 17.5484 30.4516C17.5484 31.3068 16.8552 32 16 32C15.1448 32 14.4516 31.3068 14.4516 30.4516C14.4516 29.5965 15.1448 28.9032 16 28.9032Z" fill="#00CC00"/>
<path d="M8.77419 26.8387C9.62934 26.8387 10.3226 27.5319 10.3226 28.3871C10.3226 29.2422 9.62934 29.9355 8.77419 29.9355C7.91904 29.9355 7.22581 29.2422 7.22581 28.3871C7.22581 27.5319 7.91904 26.8387 8.77419 26.8387Z" fill="#00CC00"/>
<path d="M23.2258 26.8387C24.081 26.8387 24.7742 27.5319 24.7742 28.3871C24.7742 29.2422 24.081 29.9355 23.2258 29.9355C22.3707 29.9355 21.6774 29.2422 21.6774 28.3871C21.6774 27.5319 22.3707 26.8387 23.2258 26.8387Z" fill="#00CC00"/>
<path d="M11.871 21.1613C13.0112 21.1613 13.9355 22.0856 13.9355 23.2258C13.9355 24.366 13.0112 25.2903 11.871 25.2903C10.7308 25.2903 9.80645 24.366 9.80645 23.2258C9.80645 22.0856 10.7308 21.1613 11.871 21.1613Z" fill="#00CC00"/>
<path d="M20.129 21.1613C21.2692 21.1613 22.1935 22.0856 22.1935 23.2258C22.1935 24.366 21.2692 25.2903 20.129 25.2903C18.9888 25.2903 18.0645 24.366 18.0645 23.2258C18.0645 22.0856 18.9888 21.1613 20.129 21.1613Z" fill="#00CC00"/>
<path d="M3.6129 21.6774C4.46805 21.6774 5.16129 22.3707 5.16129 23.2258C5.16129 24.081 4.46805 24.7742 3.6129 24.7742C2.75775 24.7742 2.06452 24.081 2.06452 23.2258C2.06452 22.3707 2.75775 21.6774 3.6129 21.6774Z" fill="#00CC00"/>
<path d="M28.3871 21.6774C29.2422 21.6774 29.9355 22.3707 29.9355 23.2258C29.9355 24.081 29.2422 24.7742 28.3871 24.7742C27.5319 24.7742 26.8387 24.081 26.8387 23.2258C26.8387 22.3707 27.5319 21.6774 28.3871 21.6774Z" fill="#00CC00"/>
<path d="M16 11.871C18.2804 11.871 20.129 13.7196 20.129 16C20.129 18.2804 18.2804 20.129 16 20.129C13.7196 20.129 11.871 18.2804 11.871 16C11.871 13.7196 13.7196 11.871 16 11.871Z" fill="#00CC00"/>
<path d="M7.74194 13.9355C8.88214 13.9355 9.80645 14.8598 9.80645 16C9.80645 17.1402 8.88214 18.0645 7.74194 18.0645C6.60173 18.0645 5.67742 17.1402 5.67742 16C5.67742 14.8598 6.60173 13.9355 7.74194 13.9355Z" fill="#00CC00"/>
<path d="M24.2581 13.9355C25.3983 13.9355 26.3226 14.8598 26.3226 16C26.3226 17.1402 25.3983 18.0645 24.2581 18.0645C23.1179 18.0645 22.1935 17.1402 22.1935 16C22.1935 14.8598 23.1179 13.9355 24.2581 13.9355Z" fill="#00CC00"/>
<path d="M1.54839 14.4516C2.40354 14.4516 3.09677 15.1448 3.09677 16C3.09677 16.8552 2.40354 17.5484 1.54839 17.5484C0.693236 17.5484 0 16.8552 0 16C0 15.1448 0.693236 14.4516 1.54839 14.4516Z" fill="#00CC00"/>
<path d="M30.4516 14.4516C31.3068 14.4516 32 15.1448 32 16C32 16.8552 31.3068 17.5484 30.4516 17.5484C29.5965 17.5484 28.9032 16.8552 28.9032 16C28.9032 15.1448 29.5965 14.4516 30.4516 14.4516Z" fill="#00CC00"/>
<path d="M11.871 6.70968C13.0112 6.70968 13.9355 7.63399 13.9355 8.77419C13.9355 9.91439 13.0112 10.8387 11.871 10.8387C10.7308 10.8387 9.80645 9.91439 9.80645 8.77419C9.80645 7.63399 10.7308 6.70968 11.871 6.70968Z" fill="#00CC00"/>
<path d="M20.129 6.70968C21.2692 6.70968 22.1935 7.63399 22.1935 8.77419C22.1935 9.91439 21.2692 10.8387 20.129 10.8387C18.9888 10.8387 18.0645 9.91439 18.0645 8.77419C18.0645 7.63399 18.9888 6.70968 20.129 6.70968Z" fill="#00CC00"/>
<path d="M3.6129 7.22581C4.46805 7.22581 5.16129 7.91904 5.16129 8.77419C5.16129 9.62934 4.46805 10.3226 3.6129 10.3226C2.75775 10.3226 2.06452 9.62934 2.06452 8.77419C2.06452 7.91904 2.75775 7.22581 3.6129 7.22581Z" fill="#00CC00"/>
<path d="M28.3871 7.22581C29.2422 7.22581 29.9355 7.91904 29.9355 8.77419C29.9355 9.62934 29.2422 10.3226 28.3871 10.3226C27.5319 10.3226 26.8387 9.62934 26.8387 8.77419C26.8387 7.91904 27.5319 7.22581 28.3871 7.22581Z" fill="#00CC00"/>
<path d="M8.77419 2.06452C9.62934 2.06452 10.3226 2.75775 10.3226 3.6129C10.3226 4.46805 9.62934 5.16129 8.77419 5.16129C7.91904 5.16129 7.22581 4.46805 7.22581 3.6129C7.22581 2.75775 7.91904 2.06452 8.77419 2.06452Z" fill="#00CC00"/>
<path d="M23.2258 2.06452C24.081 2.06452 24.7742 2.75775 24.7742 3.6129C24.7742 4.46805 24.081 5.16129 23.2258 5.16129C22.3707 5.16129 21.6774 4.46805 21.6774 3.6129C21.6774 2.75775 22.3707 2.06452 23.2258 2.06452Z" fill="#00CC00"/>
<path d="M16 0C16.8552 0 17.5484 0.693236 17.5484 1.54839C17.5484 2.40354 16.8552 3.09677 16 3.09677C15.1448 3.09677 14.4516 2.40354 14.4516 1.54839C14.4516 0.693236 15.1448 0 16 0Z" fill="#00CC00"/>
</svg>
